:SAMPLES-PER-SECOND 30
:FULLY-SPECIFIED
:DEGREES
391
root  0.2528133355 39.72933311 6.180555614 -175.7030029 -76.03299713 179.3330078
lowerback  13.03289986 4.037720203 -2.023600101
upperback  4.321909904 4.860300064 0.02806860022
thorax  -2.915220022 2.313149929 0.4220690131
lowerneck  2.758379936 8.274169922 -1.981369972
upperneck  7.841559887 10.5965004 4.762929916
head  1.616289973 5.245329857 1.851909995
lclavicle  0 -9.442270133e-015 7.951389973e-016
lhumerus  -12.51329994 1.026659966 70.31790161
lradius  2.960342313e-031 -1.924894133e-031 146.9669952
lwrist  0 5.296687558e-031 44.21680069
lhand  -1.496451383e-031 -27.76390076 20.11240005
lfingers  90 7.125020027 -90
lthumb  89.89689403 5.08795885 91.16245106
rclavicle  0 -9.442270133e-015 7.951389973e-016
rhumerus  6.348149776 15.25090027 -83.62979889
rradius  -2.129658843e-031 2.816628703e-031 127.0930023
rwrist  7.062250077e-031 3.531125038e-031 -51.9231987
rhand  -7.920061211e-032 -33.2840004 9.303460121
rfingers  -90 -7.125020027 -90
rthumb  -92.93752616 -24.25625642 -97.11982154
rfemur  -8.707449913 19.73730087 4.355700016
rtibia  -0 0 45.72380066
rfoot  -0 -12.22280025 -12.29150009
rtoes  5.373923086 19.29304026 -105.8922705
lfemur  -26.38400078 9.789010048 -12.45069981
ltibia  -0 0 57.96269989
lfoot  -0 -11.93220043 8.801440239
ltoes  -4.250644065 -19.5611806 -102.515957
392
root  0.2669377824 39.56866527 6.009555426 -177.210022 -75.43000031 -179.1519775
lowerback  12.46459961 4.023340225 -1.647850037
upperback  4.083069801 4.920750141 0.007740510162
thorax  -2.825920105 2.354490042 0.2118449956
lowerneck  2.770289898 8.368390083 -1.797449946
upperneck  8.214179993 10.68529987 5.019050121
head  1.727210045 5.295380116 1.91573
lclavicle  0 -9.442270133e-015 7.951389973e-016
lhumerus  -13.87720013 1.59750998 70.98880005
lradius  2.972145753e-031 -1.906618384e-031 147.3200073
lwrist  0 1.765562519e-031 43.91120148
lhand  -1.496451383e-031 -27.76390076 20.11240005
lfingers  90 7.125020027 -90
lthumb  89.89689403 5.08795885 91.16245106
rclavicle  0 -9.442270133e-015 7.951389973e-016
rhumerus  5.502810001 15.42980003 -83.88539886
rradius  -2.14633528e-031 2.803941673e-031 127.4329987
rwrist  7.062250077e-031 7.062250077e-031 -51.50960159
rhand  -7.920061211e-032 -33.2840004 9.303460121
rfingers  -90 -7.125020027 -90
rthumb  -92.93752616 -24.25625642 -97.11982154
rfemur  -7.890399933 18.80540085 5.195330143
rtibia  -0 0 44.77209854
rfoot  -0 -13.69449997 -13.52869987
rtoes  5.373923086 19.29304026 -105.8922705
lfemur  -25.41819954 10.52490044 -12.36419964
ltibia  -0 0 57.25749969
lfoot  -0 -15.36429977 9.035019875
ltoes  -4.250644065 -19.5611806 -102.515957
393
root  0.2941577688 39.38266724 5.850422101 179.5440063 -74.88800049 -175.8859863
lowerback  12.11839962 3.946939945 -0.7197020054
upperback  3.796459913 4.96009016 0.1045029983
thorax  -2.868249893 2.384439945 -0.1965689957
lowerneck  2.8443501 8.494460106 -1.634310007
upperneck  8.471039772 10.81550026 5.342040062
head  1.784080029 5.366509914 1.99605
lclavicle  0 -9.442270133e-015 7.951389973e-016
lhumerus  -15.12549973 2.307320118 71.46630096
lradius  2.982286e-031 -1.89071792e-031 147.6260071
lwrist  0 3.531125038e-031 43.67969894
lhand  -1.496451383e-031 -27.76390076 20.11240005
lfingers  90 7.125020027 -90
lthumb  89.89689403 5.08795885 91.16245106
rclavicle  0 -9.442270133e-015 7.951389973e-016
rhumerus  4.594190121 15.78929996 -84.12509918
rradius  -2.157232152e-031 2.795566755e-031 127.6559982
rwrist  7.062250077e-031 5.296687558e-031 -50.68450165
rhand  -7.920061211e-032 -33.2840004 9.303460121
rfingers  -90 -7.125020027 -90
rthumb  -92.93752616 -24.25625642 -97.11982154
rfemur  -7.077600002 17.68880081 6.492080212
rtibia  -0 0 43.79669952
rfoot  -0 -15.33460045 -15.15149975
rtoes  5.373923086 19.29304026 -105.8922705
lfemur  -24.50550079 10.90950012 -11.5
ltibia  -0 0 56.55149841
lfoot  -0 -18.64089966 7.433509827
ltoes  -4.250644065 -19.5611806 -102.515957
394
root  0.3369711046 39.19977804 5.684533457 177.4780273 -74.48300171 -173.7890015
lowerback  11.78759956 3.838829994 -0.09249880165
upperback  3.546000004 4.911550045 0.1262830049
thorax  -2.898279905 2.367650032 -0.502440989
lowerneck  3.009710073 8.599140167 -1.48187995
upperneck  8.418100357 10.93840027 5.584959984
head  1.728760004 5.432069778 2.035490036
lclavicle  0 -9.442270133e-015 7.951389973e-016
lhumerus  -16.32040024 2.913140059 72.05380249
lradius  2.99417211e-031 -1.871837977e-031 147.9880066
lwrist  -1.412450015e-030 5.296687558e-031 43.14530182
lhand  -1.496451383e-031 -27.76390076 20.11240005
lfingers  90 7.125020027 -90
lthumb  89.89689403 5.08795885 91.16245106
rclavicle  0 -9.442270133e-015 7.951389973e-016
rhumerus  3.688430071 16.1352005 -84.60900116
rradius  -2.166782671e-031 2.788170887e-031 127.8519974
rwrist  7.062250077e-031 3.531125038e-031 -49.68080139
rhand  -7.920061211e-032 -33.2840004 9.303460121
rfingers  -90 -7.125020027 -90
rthumb  -92.93752616 -24.25625642 -97.11982154
rfemur  -6.30009985 16.61680031 7.367929935
rtibia  -0 0 42.9034996
rfoot  -0 -17.82500076 -15.89509964
rtoes  5.373923086 19.29304026 -105.8922705
lfemur  -23.82320023 10.8427 -10.80109978
ltibia  -0 0 55.8927002
lfoot  -0 -20.64299965 10.30259991
ltoes  -4.250644065 -19.5611806 -102.515957
